<?xml version="1.0" encoding="UTF-8" standalone="no"?>
<svg xmlns:dc="http://purl.org/dc/elements/1.1/" xmlns:cc="http://creativecommons.org/ns#" xmlns:rdf="http://www.w3.org/1999/02/22-rdf-syntax-ns#" xmlns:svg="http://www.w3.org/2000/svg" xmlns="http://www.w3.org/2000/svg" id="svg51" version="1.1" viewBox="50.6 -1.1 179.6 179.6" height="180" width="180">
  <metadata id="metadata55">
    <rdf:RDF>
      <cc:Work rdf:about="">
        <dc:format>image/svg+xml</dc:format>
        <dc:type rdf:resource="http://purl.org/dc/dcmitype/StillImage"/>
        <dc:title>logo_lockup_summer_of_code_horizontal_Roboto</dc:title>
      </cc:Work>
    </rdf:RDF>
  </metadata>
  <!-- Generator: Sketch 3.7.2 (28276) - http://www.bohemiancoding.com/sketch -->
  <title id="title2">logo_lockup_summer_of_code_horizontal_Roboto</title>
  <desc id="desc4">Created with Sketch.</desc>
  <defs id="defs6"/>
  <g id="Group">
    <path style="fill:#fbbc05" d="m 114.7,150.8 25.7,25.7 25.7,-25.7 h 36.4 V 114.4 L 228.2,88.7 202.5,63 V 26.6 H 166.1 L 140.4,0.9 114.7,26.6 H 78.3 V 63 l -25.7,25.7 25.7,25.7 v 36.4 z" id="Shape"/>
    <path style="fill:#ffffff" id="path11" d="m 143.2,61.2 -0.1,0.4 -11.9,52.5 -0.4,2 h 7.4 l 0.1,-0.4 11.9,-52.5 0.4,-2 z m -18.9,7.2 -1,0.7 -21.5,16.7 -1.4,1.1 v 3.4 l 1.4,1.1 21.5,16.7 1,0.7 v -9 L 109.8,88.7 124.3,77.4 Z m 32.2,0 v 9 L 171,88.7 156.5,100 v 9 l 1,-0.7 21.5,-16.7 1.4,-1.1 V 87.1 L 179,86 157.4,69.2 Z"/>
    <circle id="Oval" cx="140.4" cy="88.7" r="58.7" style="fill:none;stroke:#ffffff;stroke-width:8"/>
  </g>
  
  
</svg>